<svg width="961" height="300" viewBox="0 0 961 300" fill="none" xmlns="http://www.w3.org/2000/svg">
<rect width="961" height="300" fill="white"/>
<rect x="385.5" y="183.5" width="9" height="64" fill="#4169E1" stroke="white" stroke-width="3"/>
<rect x="430.5" y="112.5" width="67" height="9" fill="#4169E1" stroke="white" stroke-width="3"/>
<path d="M550.832 71.5L551.933 76.2441L545.812 79.2461L604.25 199.91L605.988 203.5H566.424L565.77 201.998L526.649 112.146L508.162 148.866L506.903 151.366L504.562 149.834L482.632 135.496L480.683 134.221L481.816 132.187L511.309 79.2354L504.882 76.2695L505.93 71.5H550.832Z" fill="#243769" stroke="white" stroke-width="5"/>
<path d="M452.5 127.5C463.403 127.5 479.757 130.213 493.476 138.457C507.325 146.78 518.5 160.779 518.5 183V187.5C518.5 197.558 515.555 212.596 506.641 225.194C497.635 237.922 482.633 248 459 248H397.5V217.5H455C459.732 217.5 466.85 216.202 472.701 212.403C478.417 208.693 483 202.571 483 192.5V178.5C483 172.621 476.273 157.5 443 157.5H433V215.5H397.5V127.5H452.5Z" fill="#243769" stroke="white" stroke-width="5"/>
<path d="M423.5 82C423.5 103.11 413.656 110.263 407.089 110.498L407.045 110.5H342.5V98.5H372C379.094 98.5 382.947 96.4149 385.003 94.2256C387.109 91.9831 387.628 89.3224 387.507 87.6846L387.5 87.5928V87.5C387.5 81.9786 385.541 79.1685 383.482 77.6953C381.286 76.1237 378.569 75.7853 376.776 75.9844L376.639 76H339.5V177H303.5V46.5H368.5C389.741 46.5 403.46 52.1231 411.928 59.4883C420.366 66.8281 423.406 75.7498 423.5 81.9619V82Z" fill="#243769" stroke="white" stroke-width="5"/>
<path d="M401.5 110.5C414.104 110.5 422.249 114.729 427.19 120.35C432.039 125.865 433.582 132.471 433.5 137C433.5 152.214 428.35 162.2 421.635 168.41C414.996 174.549 407.026 176.815 401.585 176.999L401.542 177H342.5V147.5H383.5C391.277 147.5 395.435 145.45 397.587 143.34C399.754 141.215 400.185 138.749 400.017 137.286L400 137.144V137C400 130.244 397.675 126.448 395.094 124.313C392.413 122.097 389.166 121.432 387.081 121.499L387.04 121.5H342.5V110.5H401.5Z" fill="#243769" stroke="white" stroke-width="5"/>
<circle cx="419.5" cy="116.5" r="12" fill="#4169E1" stroke="white" stroke-width="3"/>
<path d="M425 116.5C425 119.538 422.538 122 419.5 122C416.462 122 414 119.538 414 116.5C414 113.462 416.462 111 419.5 111C422.538 111 425 113.462 425 116.5Z" fill="white"/>
<rect x="516.5" y="164.5" width="106" height="9" fill="#4169E1" stroke="white" stroke-width="3"/>
<path d="M645 145.5V248.5H611.5V145.5H645Z" fill="#243769" stroke="white" stroke-width="5"/>
</svg>
