<svg width="512" height="512" viewBox="0 0 512 512" fill="none" xmlns="http://www.w3.org/2000/svg">
<rect width="512" height="512" fill="white"/>
<path d="M154 231.135C154 276.271 358 274.771 358 231.135C358 187.5 358 232.337 358 277.169C358 322 155.5 323.5 154 277.169C154 277.169 154 186 154 231.135Z" fill="#4169E1"/>
<path d="M154 287.169C154 332.304 358 330.804 358 287.169C358 243.533 358 288.371 358 333.202C358 378.033 155.5 379.533 154 333.202C154 333.202 154 242.033 154 287.169Z" fill="#4169E1"/>
<path d="M154 343.967C154 389.102 358 387.602 358 343.967C358 300.331 358 345.169 358 390C358 434.831 155.5 436.331 154 390C154 390 154 298.831 154 343.967Z" fill="#4169E1"/>
<ellipse cx="256" cy="231" rx="102" ry="29" fill="#4169E1"/>
<ellipse cx="256" cy="229.5" rx="77" ry="23.5" fill="white"/>
<rect x="227" y="215" width="21.3527" height="21.3527" fill="#4169E1"/>
<path d="M275 168H296.353V189.353H275V168Z" fill="#4169E1"/>
<rect x="221" y="171" width="17" height="18" fill="#4169E1"/>
<rect x="248" y="150" width="15.0725" height="15.0725" fill="#4169E1"/>
<rect x="248" y="189" width="26" height="26" fill="#4169E1"/>
<ellipse cx="256" cy="100.5" rx="13" ry="12.5" fill="#4169E1"/>
<ellipse cx="206" cy="136.5" rx="13" ry="12.5" fill="#4169E1"/>
<ellipse cx="256" cy="158.5" rx="13" ry="12.5" fill="#4169E1"/>
<ellipse cx="306" cy="136.5" rx="13" ry="12.5" fill="#4169E1"/>
<rect x="252" y="109" width="8" height="41" fill="#4169E1"/>
<rect width="7.60261" height="41.9383" transform="matrix(0.642788 -0.766044 0.79434 0.607474 261.787 109.779)" fill="#4169E1"/>
<rect width="7.60261" height="35.4003" transform="matrix(0.422618 -0.906308 0.924499 0.381184 213.852 143.54)" fill="#4169E1"/>
<rect width="7.60261" height="42.4616" transform="matrix(-0.642788 -0.766044 0.79434 -0.607474 216.922 135.147)" fill="#4169E1"/>
<rect width="7.60261" height="34.9708" transform="matrix(-0.422618 -0.906308 0.924499 -0.381184 266.711 158.095)" fill="#4169E1"/>
</svg>
