<svg height="182.574186" viewBox="0 0 60.025336 19.754828" width="547.722558" xmlns="http://www.w3.org/2000/svg"><g transform="matrix(.07041343 0 0 .07041343 -5.06343 -1.195986)"><path d="m831.04 31.92c28.58-7.02 57.7-11.63 86.94-14.83 2.12-.2 4.27-.09 6.4.13-16.27 4.71-32.78 8.72-48.85 14.14-40.04 13.05-78.56 31.06-113.55 54.56-37.61 24.94-71.64 54.87-103.5 86.72-19.97 19.53-38.98 40.05-57.11 61.31-17.66 20.65-34.4 42.08-51.03 63.57-30.61-.08-61.22.06-91.83-.07 36.92-42.95 74.83-85.19 116.19-123.93 13.63-12.92 27.83-25.22 42.32-37.17 28.56-22.69 58.41-44.3 91.59-59.78 39.06-19.19 80.14-34.33 122.43-44.65z" fill="#e00024"/><g fill="#005"><path d="m99.21 203.22c13.48-46.16 26.77-92.37 40.36-138.49 27.84.05 55.67 0 83.51.03-5.85 19.63-11.31 39.4-17.3 58.98-3.59 5.29-7.98 9.99-11.83 15.09 35.08-24.69 70.2-49.32 105.23-74.08 103.99-.01 207.99.01 311.99-.01 7.42 17.01 14.94 33.97 22.3 51-5.68 6.71-11.28 13.5-16.45 20.61-14.49 11.95-28.69 24.25-42.32 37.17-7.75-18.61-16.2-36.94-24.12-55.48-25.5-.1-50.99-.01-76.49-.04-17.47 59.83-34.8 119.71-52.27 179.54-27.84-.14-55.67.08-83.51-.11 17.41-59.81 34.76-119.63 52.22-179.43-21.62 0-43.24.01-64.86-.01-22.46 14.43-44.84 28.97-67.29 43.41 17.09 45.36 34.23 90.69 51.27 136.07-27.85.09-55.7-.02-83.55.05-11.65-30.89-23.25-61.81-34.97-92.68-3.57 2.52-7.66 4.51-10.91 7.35-8.39 28.41-16.57 56.88-24.86 85.32-27.82-.02-55.64-.01-83.45 0 8.86-31.49 18.24-62.85 27.3-94.29z"/><path d="m601.37 233.95c18.13-21.26 37.14-41.78 57.11-61.31 18.22 41.62 36.6 83.17 54.67 124.85-27.96.04-55.92-.01-83.88.02-9.35-21.16-18.59-42.38-27.9-63.56z"/></g></g></svg>